<?xml version="1.0" encoding="utf-8"?>
<!-- Generator: Adobe Illustrator 26.0.0, SVG Export Plug-In . SVG Version: 6.00 Build 0)  -->
<svg version="1.1" id="Camada_1" xmlns="http://www.w3.org/2000/svg" xmlns:xlink="http://www.w3.org/1999/xlink" x="0px" y="0px"
	 viewBox="0 0 16 16" style="enable-background:new 0 0 16 16;" xml:space="preserve">
<g transform="translate(0.000000,512.000000) scale(0.100000,-0.100000)">
	<path d="M1.2,5118.8c-0.3-0.2-0.7-0.7-0.8-1.1c-0.5-1-0.5-107.9,0-108.9c0.8-1.5-0.1-1.4,25.9-1.5h24.6l0.2-1.3
		c0.1-0.8,0-1.5-0.2-1.8c-0.2-0.2-3.6-4.2-7.5-8.9c-3.9-4.7-7.2-8.8-7.3-9.2c-0.1-0.4,0-1.2,0.3-1.8c0.6-1.2,0.2-1.1,10.3-3.5
		l7.4-1.8l3.3-7.7c2-4.7,3.6-7.9,4.1-8.3c1-0.9,2.3-0.9,3.3-0.1c0.4,0.3,3.9,4.4,7.8,9.1c3.9,4.6,7.2,8.4,7.5,8.4s3.6-3.8,7.5-8.4
		c3.9-4.7,7.4-8.7,7.8-9.1c1-0.8,2.3-0.8,3.3,0.1c0.5,0.4,2,3.6,4.1,8.3l3.3,7.7l8.2,2c4.5,1.1,8.5,2.2,8.9,2.4
		c0.9,0.6,1.2,2.4,0.6,3.4c-0.4,0.6-11.8,14.3-14.5,17.4c-0.2,0.3-0.3,0.9-0.2,1.8l0.2,1.3h24.6c26,0,25.1,0,25.9,1.5
		c0.5,1,0.5,107.9,0,108.9c-0.2,0.4-0.6,0.8-0.8,1.1C158,5119.3,2,5119.3,1.2,5118.8z M154.7,5063.3v-50.6h-22.7h-22.7l-0.4,2.3
		c-1.6,10.2-9.3,19.3-19.2,22.7c-8.2,2.8-17.2,1.9-24.7-2.5c-4.8-2.8-8.7-7.2-11.2-12.3c-1.5-3-2.8-7.5-2.8-9.3v-0.9H28.1H5.3v50.6
		v50.6H80h74.7V5063.3z M84.9,5033.4c11.8-2.4,20.2-14,18.9-25.7c-0.5-4.5-2-8.5-4.4-11.7c-3-4-7.3-7.2-12-8.8
		c-2.3-0.8-2.9-0.9-7.3-0.9s-5,0.1-7.3,0.9c-5.8,2-11.3,6.6-13.9,11.7c-5.2,10.1-2.8,22,5.9,29.5c2.2,1.9,7.3,4.4,10.2,5
		C77.8,5034,82,5034,84.9,5033.4z M53.9,4996.7c3.6-7,10.2-12.6,17.7-14.8l1.8-0.5l-4.7-5.6c-2.6-3.1-4.8-5.5-4.9-5.4
		c-0.1,0.1-1.3,2.8-2.6,5.9c-1.3,3.1-2.6,5.9-2.9,6.3c-0.7,1-1.8,1.4-8.7,3.1l-6.2,1.4l1.3,1.6c5.2,6.2,8.1,9.6,8.2,9.6
		C53.1,4998.3,53.5,4997.5,53.9,4996.7z M112.4,4992c2.2-2.7,4-4.9,4-4.9s-3-0.8-6.6-1.6c-3.8-0.9-6.8-1.8-7.3-2.2
		c-0.6-0.4-1.6-2.4-3.5-6.7c-1.5-3.4-2.7-6.2-2.8-6.3c-0.1-0.1-2.3,2.3-4.9,5.4l-4.7,5.6l2.6,0.9c7.3,2.4,13.4,7.6,16.8,14.5
		l0.9,1.7l0.7-0.7C108.1,4997.2,110.2,4994.7,112.4,4992z"/>
	<path d="M11.7,5107.8l-0.9-0.8v-5.9v-5.9l2.6-0.1l2.6-0.1v4.1v4.1H20h4.1v2.7v2.7h-5.7C12.7,5108.6,12.6,5108.5,11.7,5107.8z"/>
	<path d="M135.9,5105.9v-2.7h4.1h4.1v-4.1v-4.1l2.6,0.1l2.6,0.1v5.9v5.9l-0.9,0.8c-0.9,0.7-1,0.7-6.7,0.7h-5.7V5105.9z"/>
	<path d="M48.1,5087.2v-2.7H80h31.9v2.7v2.7H80H48.1V5087.2z"/>
	<path d="M31.9,5071.2v-2.7H80h48.1v2.7v2.7H80H31.9V5071.2z"/>
	<path d="M10.7,5025.4l0.1-6l0.9-0.8c0.9-0.7,1-0.7,6.7-0.7h5.7v2.7v2.7H20H16v4.1v4.1h-2.7h-2.7L10.7,5025.4z"/>
	<path d="M144,5027.3v-4.1H140h-4.1v-2.7v-2.7h5.7c5.7,0,5.8,0,6.7,0.7l0.9,0.8l0.1,6l0.1,6h-2.7H144V5027.3z"/>
	<path d="M75.4,5028c-3.4-0.9-5.8-2.3-8.5-5c-3.8-3.7-5.4-7.8-5.4-13.2c0.1-8.2,5.7-15.5,13.7-17.7c2.1-0.6,3-0.7,5.8-0.5
		c3.8,0.2,6.2,0.9,9,2.7c5.4,3.5,8.6,9.3,8.7,15.5c0,3.4-0.4,5.5-1.9,8.6c-1.4,2.9-4.9,6.6-7.8,8.1
		C84.7,5028.5,79.8,5029.1,75.4,5028z M82.5,5023c6.7-1.2,11.6-8,10.6-14.7c-0.3-2.3-0.7-3.4-1.7-5.1c-1.2-2-3.6-4.2-6.1-5.3
		c-1.9-0.9-2.3-1-5.4-1s-3.4,0.1-5.4,1c-3.3,1.6-6.2,4.7-7.2,7.7C64.4,5015.5,72.5,5024.8,82.5,5023z"/>
</g>
</svg>
